<?xml version="1.0" encoding="utf-8"?>
<!-- Generator: Adobe Illustrator 23.1.0, SVG Export Plug-In . SVG Version: 6.00 Build 0)  -->
<svg version="1.1" id="Capa_1" xmlns="http://www.w3.org/2000/svg" xmlns:xlink="http://www.w3.org/1999/xlink" x="0px" y="0px"
	 viewBox="0 0 45 45" style="enable-background:new 0 0 45 45;" xml:space="preserve">
<style type="text/css">
	.st0{fill:#FFFFFF;}
</style>
<g id="ontoRC_1_">
	<g>
		<path class="st0" d="M7.5,25.5c0-3.9,0-7.8,0-11.7c0-0.8-0.2-1.1-1-1c-0.4,0.1-0.8,0-1.2,0c-0.8,0-1.1-0.4-1.1-1.1
			c0-0.4,0-0.8,0-1.2c0-0.9,0.4-1.3,1.4-1.3c2.1,0,4.3,0,6.4,0c0.9,0,1.3-0.3,1.6-1.1c0.3-1,0.8-2,1.2-3c0.7-1.7,2-2.5,3.8-2.5
			c2.6,0,5.3,0,7.9,0c1.8,0,3.1,0.9,3.8,2.5c0.1,0.2,0.2,0.5,0.3,0.7c0.5,1.1,0.6,2.6,1.5,3.1c0.9,0.5,2.3,0.2,3.5,0.2
			c1.2,0,2.5,0,3.7,0c1,0,1.5,0.3,1.5,1.4c0,0.2,0,0.5,0,0.7c0.1,1.1-0.4,1.5-1.5,1.5c-1.8,0-1.8,0-1.8,1.8c0,7.3,0,14.6,0,22
			c0,1.1-0.1,2.2-0.6,3.2c-0.9,1.8-2.1,2.8-4.3,2.8c-6.7-0.1-13.3,0-20,0c-3.2,0-5.1-1.7-5.2-4.9c-0.1-2.5,0-5,0-7.6
			C7.5,28.5,7.5,27,7.5,25.5z M33.9,25.3c0-3.8,0-7.6,0-11.4c0-0.9-0.2-1.2-1.2-1.2c-6.9,0.1-13.7,0-20.6,0c-0.9,0-1.1,0.3-1.1,1.2
			c0,6.5,0,13,0,19.5c0,1.2,0,2.4,0,3.6c0,1.6,0.4,1.9,1.9,1.9c6.2,0,12.5,0,18.7,0c2,0,2.2-0.2,2.2-2.2
			C33.9,32.9,33.9,29.1,33.9,25.3z M22.5,9.1c1.2,0,2.5,0,3.7,0c1.9,0,1.8,0,1.2-1.7c-0.4-1-0.9-1.3-1.9-1.3c-1.7,0.1-3.3,0-5,0
			c-2.4,0-2.4,0-3.2,2.3c-0.2,0.6-0.1,0.7,0.5,0.7C19.3,9.1,20.9,9.1,22.5,9.1z"/>
		<path class="st0" d="M24.3,25.9c0,2.3,0,4.6,0,7c0,1-0.4,1.5-1.4,1.4c-0.3,0-0.7,0-1,0c-0.8,0-1.2-0.4-1.2-1.2c0-4.8,0-9.6,0-14.4
			c0-0.8,0.4-1.2,1.2-1.2c0.3,0,0.7,0,1,0c1-0.1,1.4,0.4,1.4,1.4C24.3,21.1,24.3,23.5,24.3,25.9z"/>
		<path class="st0" d="M17.7,25.8c0,2.3,0,4.6,0,7c0,1.1-0.4,1.6-1.5,1.5c-0.3,0-0.7,0-1,0c-0.7,0-1-0.4-1-1.1c0-4.9,0-9.8,0-14.6
			c0-0.7,0.4-1.1,1.1-1.1c0.3,0,0.6,0,0.9,0c1.4,0,1.6,0.2,1.6,1.5C17.7,21.2,17.7,23.5,17.7,25.8z"/>
		<path class="st0" d="M30.9,25.8c0,2.4,0,4.7,0,7.1c0,0.9-0.4,1.4-1.3,1.3c-0.3,0-0.6,0-0.9,0c-1,0.1-1.4-0.4-1.4-1.4
			c0-4,0-8.1,0-12.1c0-0.4,0-0.8,0-1.2c0-2.1,0.6-2.6,2.8-2.2c0.7,0.2,0.8,0.7,0.8,1.3C30.9,21.1,30.9,23.4,30.9,25.8z"/>
	</g>
</g>
</svg>
